<svg xmlns="http://www.w3.org/2000/svg" viewBox="0 0 24 24" role="img">
  <path fill="#EA4335" d="M24 5.457v13.909c0 .904-.732 1.636-1.636 1.636h-3.819V11.73L12 16.64l-6.545-4.91v9.273H1.636A1.636 1.636 0 0 1 0 19.366V5.457c0-2.023 2.309-3.178 3.927-1.964L12 9.548l8.073-6.055C21.69 2.28 24 3.434 24 5.457z"/>
  <path fill="#34A853" d="M12 16.64 6.545 11.73V22.001h3.819V11.73L12 16.64z"/>
  <path fill="#FBBC05" d="M23.491 4.02 12 12.713 0.509 4.02C1.65 2.288 3.835 1.09 6.545 1.09h10.91c2.71 0 4.895 1.198 6.036 2.93z"/>
  <path fill="#C5221F" d="M1.636 22.001h3.819V11.73L0 7.92v13.445c0 .904.732 1.636 1.636 1.636z"/>
  <path fill="#4285F4" d="M12 16.64l8.073-6.055V22.001h3.819V11.73L12 16.64z"/>
</svg>
